<svg xmlns="http://www.w3.org/2000/svg" version="1.1" xmlns:xlink="http://www.w3.org/1999/xlink" xmlns:svgjs="http://svgjs.dev/svgjs" width="1000" height="636" viewBox="0 0 1000 636"><g transform="matrix(1,0,0,1,-0.6060606060606233,-6.057142632095406)"><svg viewBox="0 0 396 252" data-background-color="#ffffff" preserveAspectRatio="xMidYMid meet" height="636" width="1000" xmlns="http://www.w3.org/2000/svg" xmlns:xlink="http://www.w3.org/1999/xlink"><g id="tight-bounds" transform="matrix(1,0,0,1,0.2400000000000091,2.399999910830246)"><svg viewBox="0 0 395.52 247.2" height="247.2" width="395.52"><g><svg></svg></g><g><svg viewBox="0 0 395.52 247.2" height="247.2" width="395.52"><g transform="matrix(1,0,0,1,39.55199999999999,42.16756085918853)"><svg viewBox="0 0 316.416 162.86487828162294" height="162.86487828162294" width="316.416"><g><svg viewBox="0 0 316.416 162.86487828162294" height="162.86487828162294" width="316.416"><g><svg viewBox="0 0 316.416 162.86487828162294" height="162.86487828162294" width="316.416"><g><svg viewBox="0 0 316.416 162.86487828162294" height="162.86487828162294" width="316.416"><g><svg viewBox="0 0 316.416 162.86487828162294" height="162.86487828162294" width="316.416"><g><svg viewBox="0 0 316.416 162.86487828162294" height="162.86487828162294" width="316.416"><g transform="matrix(1,0,0,1,0,0)"><svg width="316.416" viewBox="2.6500000953674316 -32.150001525878906 62.849998474121094 32.35000228881836" height="162.86487828162294" data-palette-color="#ed1703"><path d="M33.8-32.1L36.85 0 32.25 0 31.6-9.75 30.1-24.25 29.75-24.25 21.5-3.55 17.4-3.55 9.75-24.25 9.3-24.25 7.8-10.2 7 0 2.65 0 6-32.1 11.9-32.1 13.4-27.3 19.55-10.25 19.95-10.25 26.45-27.45 27.95-32.1 33.8-32.1ZM58.9-16.7Q62.25-16 63.87-14.08 65.5-12.15 65.5-9L65.5-9Q65.5 0.2 51.75 0.2L51.75 0.2Q47 0.2 43.95 0L43.95 0 43.9 0 44.25-9.65 43.9-32.1 53.9-32.15Q58.55-32.15 61.12-30.13 63.7-28.1 63.7-24.25L63.7-24.25Q63.7-21.55 62.45-19.63 61.2-17.7 58.9-16.7L58.9-16.7ZM58.4-23.65Q58.4-26.05 57.05-27.1 55.7-28.15 52.5-28.15L52.5-28.15 49.1-28.15 48.95-18.3 54.1-18.15Q56.3-18.7 57.35-20.03 58.4-21.35 58.4-23.65L58.4-23.65ZM52.6-3.8Q56.3-3.8 58.3-5.2 60.3-6.6 60.3-9.3L60.3-9.3Q60.3-13.6 54.75-14.35L54.75-14.35 48.9-14.3 48.85-10.1 49-3.95Q50.95-3.8 52.6-3.8L52.6-3.8Z" opacity="1" transform="matrix(1,0,0,1,0,0)" fill="#ed1703" class="undefined-text-0" data-fill-palette-color="primary" id="text-0"></path></svg></g></svg></g></svg></g></svg></g></svg></g></svg></g></svg></g><g mask="url(#00ab3a65-4755-48c4-b8c3-e235c8f56ad2)"><g transform="matrix(4.227586206896552, 0, 0, 4.227586206896552, 104.75310344827585, 0.9999999999999858)"><svg xmlns="http://www.w3.org/2000/svg" data-name="Layer 1" viewBox="10 3 44 58" x="0" y="0" height="58" width="44" class="icon-none" data-fill-palette-color="accent" id="none"><path d="M30.614 50.847l-1.74 6.084H27.422l-1.716-6.072v6.072H24V48h2.557l1.584 5.736L29.738 48h2.58v8.928h-1.7Z" fill="#ff908b" data-fill-palette-color="accent"></path><path d="M36.885 56.931H33.639V48h3.329a6 6 0 0 1 1.144 0.108 2.893 2.893 0 0 1 0.989 0.378 2.007 2.007 0 0 1 0.688 0.726 2.289 2.289 0 0 1 0.258 1.14 2.154 2.154 0 0 1-0.288 1.1 1.961 1.961 0 0 1-0.838 0.768 2.077 2.077 0 0 1 1.03 0.84 2.775 2.775 0 0 1 0.287 1.32 2.194 2.194 0 0 1-0.875 1.932A4.177 4.177 0 0 1 36.885 56.931Zm0.137-7.3H35.546v1.8H37.07a1.455 1.455 0 0 0 0.4-0.053 1.021 1.021 0 0 0 0.336-0.157 0.832 0.832 0 0 0 0.234-0.263 0.745 0.745 0 0 0 0.09-0.38 0.868 0.868 0 0 0-0.275-0.7A1.216 1.216 0 0 0 37.022 49.635Zm0.042 3.432H35.546V55.3h1.543a1.444 1.444 0 0 0 0.928-0.255 1.083 1.083 0 0 0 0.313-0.885 1.048 1.048 0 0 0-0.3-0.831A1.519 1.519 0 0 0 37.064 53.067Z" fill="#ff908b" data-fill-palette-color="accent"></path><polygon points="40.232 37.087 45.469 34.063 45.469 28.018 40.232 31.047 40.232 37.087" fill="#ff908b" data-fill-palette-color="accent"></polygon><polygon points="44.469 26.286 39.234 23.264 34.002 26.285 39.242 29.309 44.469 26.286" fill="#ff908b" data-fill-palette-color="accent"></polygon><polygon points="38.232 31.466 38.232 31.036 33 28.016 33 34.063 38.232 37.084 38.232 31.466" fill="#ff908b" data-fill-palette-color="accent"></polygon><polygon points="18.531 25.709 23.763 28.729 23.763 23.111 23.763 22.681 18.531 19.661 18.531 25.709" fill="#ff908b" data-fill-palette-color="accent"></polygon><path d="M53.84 17.73c-0.02-0.02-0.04-0.05-0.06-0.07a0.484 0.484 0 0 0-0.07-0.08L39.42 3.29c-0.02-0.02-0.05-0.04-0.07-0.06s-0.06-0.05-0.08-0.07L39.12 3H14a4 4 0 0 0-4 4V57a4 4 0 0 0 4 4H50a4 4 0 0 0 4-4V17.88ZM39.71 6.41L50.59 17.29H41.71a2.006 2.006 0 0 1-2-2ZM16.531 17.354L24.766 12.6 33 17.354v7.2l6.234-3.6 8.235 4.754v9.509l-8.235 4.755L31 35.218v-7.2l-6.234 3.6-8.235-4.755ZM52 57a2.006 2.006 0 0 1-2 2H14a2.006 2.006 0 0 1-2-2V41.46H25.73l2.7 3.09a0.981 0.981 0 0 0 0.75 0.34H52Z" fill="#ff908b" data-fill-palette-color="accent"></path><polygon points="30 17.932 24.766 14.91 19.533 17.93 24.773 20.954 30 17.932" fill="#ff908b" data-fill-palette-color="accent"></polygon><polygon points="25.763 28.733 31 25.71 31 25.709 31 25.709 31 19.664 25.763 22.692 25.763 28.733" fill="#ff908b" data-fill-palette-color="accent"></polygon></svg></g></g></svg></g><defs><mask id="00ab3a65-4755-48c4-b8c3-e235c8f56ad2"><rect width="640" height="400" fill="white"></rect><rect width="348.05760000000004" height="239.76185629204775" fill="black" x="145.97119999999998" y="80.11907185397612" id="transform-me" transform="matrix(1,0,0,1,-122.24000000000001,-76.4)"></rect></mask></defs></svg><rect width="395.52" height="247.2" fill="none" stroke="none" visibility="hidden"></rect></g></svg></g></svg>